<svg width="721" height="720" xmlns="http://www.w3.org/2000/svg" xmlns:xlink="http://www.w3.org/1999/xlink" xml:space="preserve" overflow="hidden"><g transform="translate(-305 0)"><g><g><path d="M595.257 202.574 501.475 202.574 501.475 176.885 657.447 176.885 657.447 31.6245 625.858 31.6245 625.858 0 372.157 0 372.157 31.6223 341.554 31.6223 341.554 234.196 309.969 234.196 309.969 264.828 263.573 264.828 263.573 296.45 217.175 296.45 217.175 328.071 185.586 328.071 185.586 358.705 128.33 358.705 128.33 327.083 97.7288 327.083 97.7288 296.45 66.1396 296.45 66.1396 234.196 30.6035 234.196 30.6035 425.901 61.2048 425.901 61.2048 457.521 92.7917 457.521 92.7917 488.156 123.395 488.156 123.395 519.776 154.984 519.776 154.984 550.41 185.586 550.41 185.586 674.919 252.713 674.919 252.713 639.341 222.11 639.341 222.11 612.667 252.713 612.667 252.713 582.032 284.302 582.032 284.302 550.412 309.967 550.412 309.967 582.032 341.556 582.032 341.556 674.921 408.683 674.921 408.683 639.341 377.094 639.341 377.094 519.773 408.683 519.773 408.683 488.158 439.284 488.158 439.284 441.713 470.874 441.713 470.874 333.014 496.54 333.014 496.54 363.649 533.064 363.649 533.064 296.453 470.876 296.453 470.876 239.14 595.257 239.14Z" fill="#666666" fill-rule="evenodd" transform="matrix(1 0 0 1.00072 322.053 22.2953)"/><path d="M402.761 45.4566 440.272 45.4566 440.272 83.0061 402.761 83.0061Z" fill="#FFFFFF" fill-rule="evenodd" transform="matrix(1 0 0 1.00072 322.053 22.2953)"/></g></g></g></svg>