<?xml version="1.0" encoding="UTF-8"?>
<svg version="1.1" xmlns="http://www.w3.org/2000/svg" width="512" height="512">
<path d="M0 0 C66.99 0 133.98 0 203 0 C203 6.6 203 13.2 203 20 C204.92585938 19.97679688 206.85171875 19.95359375 208.8359375 19.9296875 C211.34895447 19.91093364 213.86197562 19.89273303 216.375 19.875 C218.28152344 19.84986328 218.28152344 19.84986328 220.2265625 19.82421875 C221.43828125 19.81777344 222.65 19.81132812 223.8984375 19.8046875 C225.01911621 19.79421387 226.13979492 19.78374023 227.29443359 19.77294922 C230 20 230 20 232 22 C232.24609566 23.93277168 232.24609566 23.93277168 232.24050903 26.34060669 C232.24326403 27.25018694 232.24601902 28.15976719 232.2488575 29.09691048 C232.24166128 30.1014974 232.23446507 31.10608433 232.22705078 32.14111328 C232.22741239 33.74724896 232.22741239 33.74724896 232.2277813 35.38583183 C232.22628429 38.86407555 232.21103372 42.34210695 232.1953125 45.8203125 C232.19237327 47.96280819 232.19033209 50.10530532 232.18920898 52.24780273 C232.17870775 60.20689034 232.15078551 68.16594724 232.125 76.125 C232.08375 93.90375 232.0425 111.6825 232 130 C189.1 130 146.2 130 102 130 C102 138.25 102 146.5 102 155 C125.76 155 149.52 155 174 155 C175.86811641 159.67029104 176.27649964 162.88780913 176.1875 167.75 C176.18685547 168.43449219 176.18621094 169.11898437 176.18554688 169.82421875 C176.14067963 174.85932037 176.14067963 174.85932037 175 176 C172.05875701 176.11999006 169.13995624 176.17548685 166.19750977 176.18945312 C164.8122258 176.20189308 164.8122258 176.20189308 163.3989563 176.21458435 C161.38658454 176.23202685 159.37419199 176.24718204 157.3617878 176.26036072 C154.18123581 176.28131701 151.00078823 176.30834553 147.82029724 176.33703613 C141.06773789 176.39684804 134.31513049 176.44894516 127.5625 176.5 C119.74432066 176.55914468 111.92619265 176.62139551 104.10810661 176.69187927 C100.96715295 176.71853153 97.82619437 176.73930051 94.68519592 176.7598877 C92.76742302 176.77648633 90.84965246 176.79335779 88.93188477 176.81054688 C88.0523262 176.81473129 87.17276764 176.81891571 86.26655579 176.82322693 C81.99781671 176.74571283 81.99781671 176.74571283 78 178 C78.33 194.17 78.66 210.34 79 227 C94.09364568 226.96039251 94.09364568 226.96039251 109.18725586 226.90991211 C111.07145125 226.90699308 112.95564727 226.90444449 114.83984375 226.90234375 C115.82795044 226.89722778 116.81605713 226.89211182 117.83410645 226.88684082 C118.76791138 226.88671997 119.70171631 226.88659912 120.66381836 226.88647461 C121.47878281 226.884254 122.29374725 226.88203339 123.13340759 226.87974548 C125 227 125 227 126 228 C126.09295815 229.44289787 126.11746513 230.89029785 126.11352539 232.33618164 C126.11344986 233.2570607 126.11337433 234.17793976 126.11329651 235.12672424 C126.10813522 236.12775681 126.10297394 237.12878937 126.09765625 238.16015625 C126.09553383 239.68956093 126.09553383 239.68956093 126.09336853 241.24986267 C126.08775097 244.52077107 126.0751955 247.79161213 126.0625 251.0625 C126.05748726 253.27408756 126.05292396 255.48567618 126.04882812 257.69726562 C126.03777584 263.13153357 126.02102063 268.56576197 126 274 C122.44986171 274.83088343 119.33590633 275.07031086 115.69921875 274.87890625 C114.81838623 274.83580322 113.93755371 274.7927002 113.0300293 274.74829102 C111.92699463 274.68697998 110.82395996 274.62566895 109.6875 274.5625 C106.160625 274.376875 102.63375 274.19125 99 274 C99 266.74 99 259.48 99 252 C92.07 252.33 85.14 252.66 78 253 C78.00785522 256.52856689 78.00785522 256.52856689 78.01586914 260.12841797 C78.03241501 267.88766976 78.04347524 275.64692232 78.05181217 283.40618706 C78.05703795 288.11210943 78.0641301 292.81801378 78.07543945 297.52392578 C78.08627912 302.06263532 78.09227914 306.6013275 78.09487724 311.14004898 C78.09672954 312.87445474 78.10034643 314.60885951 78.10573006 316.3432579 C78.11295478 318.76645741 78.11399033 321.18958448 78.11352539 323.61279297 C78.11712067 324.33496002 78.12071594 325.05712708 78.12442017 325.80117798 C78.11405216 330.77189568 78.11405216 330.77189568 77 333 C77.66 333.33 78.32 333.66 79 334 C79 334.66 79 335.32 79 336 C69.76 335.67 60.52 335.34 51 335 C51.01160156 337.08183594 51.02320313 339.16367187 51.03515625 341.30859375 C51.04210735 343.31746298 51.04902389 345.32633251 51.05493164 347.33520508 C51.0599708 348.73495228 51.06680216 350.1346942 51.07543945 351.53442383 C51.0875232 353.54245777 51.09269807 355.55052957 51.09765625 357.55859375 C51.10551147 359.37315063 51.10551147 359.37315063 51.11352539 361.22436523 C51 364 51 364 50 365 C47.92737924 365.08767112 45.85179706 365.10695873 43.77734375 365.09765625 C42.51728516 365.09443359 41.25722656 365.09121094 39.95898438 365.08789062 C38.61848891 365.07953403 37.27799412 365.07106907 35.9375 365.0625 C34.59310058 365.0574866 33.2486994 365.05292342 31.90429688 365.04882812 C28.60284567 365.03699497 25.3014174 365.01905886 22 365 C22 373.91 22 382.82 22 392 C13.90901413 394.02274647 5.33999734 393 -3 393 C-3 423.03 -3 453.06 -3 484 C8.55 484 20.1 484 32 484 C36.1766547 492.35330939 33 502.66071618 33 512 C13.86 512 -5.28 512 -25 512 C-25 489.23 -25 466.46 -25 443 C-32.92 443 -40.84 443 -49 443 C-53 440 -53 440 -53.45410156 437.5480957 C-53.4331543 436.60023193 -53.41220703 435.65236816 -53.390625 434.67578125 C-53.38063477 433.74934814 -53.37064453 432.82291504 -53.36035156 431.8684082 C-53.32393555 430.6949585 -53.28751953 429.52150879 -53.25 428.3125 C-53.1675 424.579375 -53.085 420.84625 -53 417 C-60.92 416.67 -68.84 416.34 -77 416 C-77 424.91 -77 433.82 -77 443 C-84.26 443 -91.52 443 -99 443 C-99.33 449.93 -99.66 456.86 -100 464 C-100.66 464 -101.32 464 -102 464 C-102.33 464.66 -102.66 465.32 -103 466 C-110.92 465.67 -118.84 465.34 -127 465 C-127 471.27 -127 477.54 -127 484 C-117.1 484 -107.2 484 -97 484 C-92.8233453 492.35330939 -96 502.66071618 -96 512 C-115.14 512 -134.28 512 -154 512 C-154 480.32 -154 448.64 -154 416 C-160.6 416 -167.2 416 -174 416 C-174.98130583 413.05608252 -175.09389457 411.30820355 -175.02172852 408.25317383 C-175.00163223 407.29240433 -174.98153595 406.33163483 -174.96083069 405.3417511 C-174.93379562 404.30729355 -174.90676056 403.272836 -174.87890625 402.20703125 C-174.84348976 400.61528328 -174.84348976 400.61528328 -174.80735779 398.99137878 C-174.73071549 395.5982833 -174.64669324 392.20541571 -174.5625 388.8125 C-174.5092799 386.51368307 -174.4565395 384.21485498 -174.40429688 381.91601562 C-174.27509954 376.2772024 -174.1398408 370.63855877 -174 365 C-174.68460297 365.00222061 -175.36920593 365.00444122 -176.07455444 365.00672913 C-183.17925496 365.02879753 -190.2839458 365.04391314 -197.38867188 365.05493164 C-200.04264725 365.05997042 -202.69661984 365.06680151 -205.35058594 365.07543945 C-209.15821011 365.08752489 -212.96579769 365.09323275 -216.7734375 365.09765625 C-217.96617279 365.10281754 -219.15890808 365.10797882 -220.38778687 365.11329651 C-221.48877716 365.11337204 -222.58976746 365.11344757 -223.72412109 365.11352539 C-224.69674896 365.115746 -225.66937683 365.11796661 -226.67147827 365.12025452 C-229 365 -229 365 -231 364 C-232.12933013 358.74557178 -231.9844039 353.86297078 -231.5625 348.5625 C-231.51029297 347.83095703 -231.45808594 347.09941406 -231.40429688 346.34570312 C-231.27615124 344.56331378 -231.1390184 342.7815743 -231 341 C-232.32 341 -233.64 341 -235 341 C-235.33 341.66 -235.66 342.32 -236 343 C-236 342.34 -236 341.68 -236 341 C-242.6 341.33 -249.2 341.66 -256 342 C-255.67 335.4 -255.34 328.8 -255 322 C-262.92 322 -270.84 322 -279 322 C-279.19983957 303.38980233 -279.38380302 284.77953036 -279.54658794 266.16897011 C-279.62256972 257.52823452 -279.70421236 248.88762097 -279.79907227 240.24707031 C-279.88171462 232.71808824 -279.95384725 225.18909236 -280.01323253 217.65988958 C-280.04506237 213.67128935 -280.08224039 209.68289734 -280.13199425 205.69447708 C-280.17861965 201.94355221 -280.21123481 198.19277122 -280.2329216 194.44162178 C-280.24340083 193.06206244 -280.25907993 191.68253171 -280.28024101 190.30309486 C-280.30828303 188.42533305 -280.31611898 186.54730135 -280.32279968 184.66934204 C-280.33293941 183.61665445 -280.34307913 182.56396687 -280.35352612 181.47937965 C-280.2368625 180.66118437 -280.12019888 179.84298908 -280 179 C-275.43939567 175.95959711 -270.92651986 176.67109627 -265.5625 176.6875 C-264.51255859 176.67138672 -263.46261719 176.65527344 -262.38085938 176.63867188 C-261.36958984 176.63802734 -260.35832031 176.63738281 -259.31640625 176.63671875 C-257.93110718 176.63224731 -257.93110718 176.63224731 -256.51782227 176.62768555 C-253.28461013 177.10578586 -252.0862874 177.43119656 -250 180 C-249.43738009 183.23416591 -249.53631795 186.42560353 -249.609375 189.69921875 C-249.61503479 190.64940384 -249.62069458 191.59958893 -249.62652588 192.5785675 C-249.64892852 195.61538944 -249.6991323 198.65103431 -249.75 201.6875 C-249.77005996 203.74542568 -249.78831161 205.80336983 -249.8046875 207.86132812 C-249.84880613 212.90800607 -249.9178607 217.95380343 -250 223 C-249.38479492 222.97381592 -248.76958984 222.94763184 -248.13574219 222.9206543 C-245.34075592 222.81654079 -242.54617742 222.75163251 -239.75 222.6875 C-238.29787109 222.6246582 -238.29787109 222.6246582 -236.81640625 222.56054688 C-229.5980051 222.43609168 -229.5980051 222.43609168 -226.328125 225.51953125 C-225.88984375 226.33808594 -225.4515625 227.15664062 -225 228 C-225.33 228.33 -225.66 228.66 -226 229 C-226.15582303 230.34015221 -226.25044142 231.68758903 -226.31640625 233.03515625 C-226.35830078 233.84404297 -226.40019531 234.65292969 -226.44335938 235.48632812 C-226.48267578 236.33646484 -226.52199219 237.18660156 -226.5625 238.0625 C-226.62727539 239.34350586 -226.62727539 239.34350586 -226.69335938 240.65039062 C-226.79976702 242.76672037 -226.90041731 244.88333813 -227 247 C-226.2886792 246.98952637 -225.5773584 246.97905273 -224.84448242 246.96826172 C-221.62552414 246.92671999 -218.40662224 246.90067961 -215.1875 246.875 C-214.06794922 246.85824219 -212.94839844 246.84148437 -211.79492188 246.82421875 C-210.72177734 246.81777344 -209.64863281 246.81132812 -208.54296875 246.8046875 C-207.0583313 246.78897705 -207.0583313 246.78897705 -205.54370117 246.77294922 C-203 247 -203 247 -200 249 C-199.65942383 251.70556641 -199.65942383 251.70556641 -199.70703125 255.1015625 C-199.71827026 256.73859131 -199.71827026 256.73859131 -199.72973633 258.40869141 C-199.75704834 259.80007324 -199.78436035 261.19145508 -199.8125 262.625 C-199.874375 267.03875 -199.93625 271.4525 -200 276 C-174.755 275.505 -174.755 275.505 -149 275 C-149 268.07 -149 261.14 -149 254 C-145.79593538 251.86395692 -145.00399253 251.75791092 -141.33203125 251.8046875 C-140.43935547 251.81113281 -139.54667969 251.81757813 -138.62695312 251.82421875 C-137.23379883 251.84935547 -137.23379883 251.84935547 -135.8125 251.875 C-134.87212891 251.88402344 -133.93175781 251.89304688 -132.96289062 251.90234375 C-130.64167032 251.92590944 -128.32096356 251.95880884 -126 252 C-126.01047363 251.2886792 -126.02094727 250.5773584 -126.03173828 249.84448242 C-126.07328001 246.62552414 -126.09932039 243.40662224 -126.125 240.1875 C-126.14175781 239.06794922 -126.15851563 237.94839844 -126.17578125 236.79492188 C-126.18222656 235.72177734 -126.18867188 234.64863281 -126.1953125 233.54296875 C-126.20578613 232.55321045 -126.21625977 231.56345215 -126.22705078 230.54370117 C-126 228 -126 228 -124 225 C-121.23371085 224.7332384 -118.69380369 224.65195811 -115.9296875 224.70703125 C-114.73534592 224.71339851 -114.73534592 224.71339851 -113.51687622 224.71989441 C-110.96924271 224.73671166 -108.42239511 224.77436821 -105.875 224.8125 C-104.14975099 224.82754295 -102.42448961 224.84123204 -100.69921875 224.85351562 C-96.46559816 224.88407593 -92.23368055 224.9427881 -88 225 C-88 217.74 -88 210.48 -88 203 C-83.48526574 202.24754429 -79.79261321 201.88168526 -75.2890625 201.90234375 C-74.04511719 201.90556641 -72.80117187 201.90878906 -71.51953125 201.91210938 C-70.23433594 201.92048828 -68.94914063 201.92886719 -67.625 201.9375 C-66.31660156 201.94201172 -65.00820312 201.94652344 -63.66015625 201.95117188 C-60.44005719 201.96292406 -57.2200523 201.97935457 -54 202 C-54.01571045 201.34926514 -54.0314209 200.69853027 -54.04760742 200.02807617 C-54.10994649 197.08130576 -54.14898684 194.13467402 -54.1875 191.1875 C-54.21263672 190.16333984 -54.23777344 189.13917969 -54.26367188 188.08398438 C-54.27817383 186.60961914 -54.27817383 186.60961914 -54.29296875 185.10546875 C-54.31653442 183.74651489 -54.31653442 183.74651489 -54.34057617 182.36010742 C-54 180 -54 180 -51 177 C-43.08 177 -35.16 177 -27 177 C-27 126.18 -27 75.36 -27 23 C-24.525 22.01 -24.525 22.01 -22 21 C-22 20.67 -22 20.34 -22 20 C-14.74 20 -7.48 20 0 20 C0 13.4 0 6.8 0 0 Z M25 28 C25 28.33 25 28.66 25 29 C32.59 29 40.18 29 48 29 C48 28.67 48 28.34 48 28 C40.41 28 32.82 28 25 28 Z M26 30 C26 36.27 26 42.54 26 49 C33.26 49 40.52 49 48 49 C48 42.73 48 36.46 48 30 C40.74 30 33.48 30 26 30 Z M103 156 C103 156.33 103 156.66 103 157 C123.46 157 143.92 157 165 157 C165 156.67 165 156.34 165 156 C144.54 156 124.08 156 103 156 Z M-252 224 C-252 224.33 -252 224.66 -252 225 C-244.41 225 -236.82 225 -229 225 C-229 224.67 -229 224.34 -229 224 C-236.59 224 -244.18 224 -252 224 Z M-202 252 C-202 259.92 -202 267.84 -202 276 C-201.67 276 -201.34 276 -201 276 C-201 268.08 -201 260.16 -201 252 C-201.33 252 -201.66 252 -202 252 Z M-146 253 C-146 253.33 -146 253.66 -146 254 C-139.07 254 -132.14 254 -125 254 C-125 253.67 -125 253.34 -125 253 C-131.93 253 -138.86 253 -146 253 Z M50 333 C50 333.33 50 333.66 50 334 C54.62 334 59.24 334 64 334 C64 333.67 64 333.34 64 333 C59.38 333 54.76 333 50 333 Z " fill="#545454" transform="translate(280,0)"/>
<path d="M0 0 C9.9 0 19.8 0 30 0 C30 35.64 30 71.28 30 108 C-12.9 108 -55.8 108 -100 108 C-100 116.25 -100 124.5 -100 133 C-76.24 133 -52.48 133 -28 133 C-26.13188359 137.67029104 -25.72350036 140.88780913 -25.8125 145.75 C-25.8134668 146.77673828 -25.8134668 146.77673828 -25.81445312 147.82421875 C-25.85932037 152.85932037 -25.85932037 152.85932037 -27 154 C-29.93605946 154.11466584 -32.84954717 154.16486175 -35.78662109 154.17358398 C-37.16949562 154.1836145 -37.16949562 154.1836145 -38.58030701 154.19384766 C-40.58940667 154.20793361 -42.59852268 154.21981626 -44.60764694 154.22979546 C-47.78427803 154.24614956 -50.96078804 154.26938485 -54.13735962 154.29469299 C-63.17159027 154.36562385 -72.20587069 154.42562956 -81.24023438 154.47680664 C-86.75924475 154.5085539 -92.27811719 154.54982042 -97.79701614 154.59700203 C-99.90457304 154.61305005 -102.01216177 154.62535861 -104.11976242 154.63390923 C-107.06484775 154.64602881 -110.00960741 154.67016486 -112.95458984 154.69702148 C-113.83055313 154.69761063 -114.70651642 154.69819977 -115.60902405 154.69880676 C-120.60084232 154.7512381 -120.60084232 154.7512381 -125 157 C-125.38218767 155.34385343 -125.71395102 153.67542976 -126 152 C-124.11114805 150.11114805 -121.35948241 150.87989365 -118.84675598 150.87557983 C-117.51966866 150.88097275 -117.51966866 150.88097275 -116.16577148 150.88647461 C-114.77566864 150.88625557 -114.77566864 150.88625557 -113.35748291 150.8860321 C-110.27866313 150.88673162 -107.19990303 150.89452579 -104.12109375 150.90234375 C-101.99259982 150.90420779 -99.86410547 150.90563176 -97.73561096 150.90663147 C-92.1213768 150.91045772 -86.50716832 150.92028892 -80.89294434 150.93133545 C-75.16886747 150.94154727 -69.44478647 150.9461286 -63.72070312 150.95117188 C-52.48045744 150.96191109 -41.24023085 150.9789888 -30 151 C-30 146.38 -30 141.76 -30 137 C-32.14556396 137.00523682 -34.29112793 137.01047363 -36.50170898 137.01586914 C-43.57444739 137.03240625 -50.64718664 137.04347171 -57.71993923 137.05181217 C-62.00999915 137.05704061 -66.30003933 137.06413753 -70.59008789 137.07543945 C-74.726794 137.08626975 -78.86348108 137.09227714 -83.00020027 137.09487724 C-84.58192304 137.09673124 -86.16364471 137.10035136 -87.74535942 137.10573006 C-89.95322838 137.1129424 -92.16101773 137.11399086 -94.36889648 137.11352539 C-95.62798325 137.115746 -96.88707001 137.11796661 -98.18431091 137.12025452 C-101 137 -101 137 -102 136 C-102.10003289 133.86646826 -102.13081048 131.72962458 -102.1328125 129.59375 C-102.13410156 128.29308594 -102.13539063 126.99242187 -102.13671875 125.65234375 C-102.13357666 124.63116455 -102.13357666 124.63116455 -102.13037109 123.58935547 C-102.1250224 121.50871485 -102.1303168 119.42829011 -102.13671875 117.34765625 C-102.13542969 116.04699219 -102.13414062 114.74632812 -102.1328125 113.40625 C-102.13168457 112.20291016 -102.13055664 110.99957031 -102.12939453 109.75976562 C-102 107 -102 107 -101 106 C-98.05397359 105.87452363 -95.13029414 105.81386006 -92.18286133 105.79467773 C-90.79188988 105.77982834 -90.79188988 105.77982834 -89.37281799 105.76467896 C-86.27591561 105.73286409 -83.17899884 105.70817983 -80.08203125 105.68359375 C-77.91330091 105.66299287 -75.74457429 105.64199564 -73.57585144 105.62062073 C-68.99988949 105.57652195 -64.42391416 105.53565586 -59.84790039 105.49731445 C-54.07431259 105.44891707 -48.30079175 105.39524234 -42.52727222 105.33933926 C-36.94137605 105.28549967 -31.35545516 105.23445945 -25.76953125 105.18359375 C-24.74369242 105.17403593 -23.71785358 105.16447811 -22.66092873 105.15463066 C-5.43939999 104.99711717 11.77653759 105 29 105 C29 71.01 29 37.02 29 2 C19.1 2 9.2 2 -1 2 C-0.67 1.34 -0.34 0.68 0 0 Z M-99 134 C-99 134.33 -99 134.66 -99 135 C-78.54 135 -58.08 135 -37 135 C-37 134.67 -37 134.34 -37 134 C-57.46 134 -77.92 134 -99 134 Z " fill="#575757" transform="translate(482,22)"/>
<path d="M0 0 C9.9 0 19.8 0 30 0 C30 35.64 30 71.28 30 108 C-12.9 108 -55.8 108 -100 108 C-100 115.92 -100 123.84 -100 132 C-100.99 133.98 -100.99 133.98 -102 136 C-102.02465746 131.8882744 -102.04283959 127.77657722 -102.05493164 123.66479492 C-102.0599708 122.26504772 -102.06680216 120.8653058 -102.07543945 119.46557617 C-102.0875232 117.45754223 -102.09269807 115.44947043 -102.09765625 113.44140625 C-102.10289307 112.23170166 -102.10812988 111.02199707 -102.11352539 109.77563477 C-102 107 -102 107 -101 106 C-98.05397359 105.87452363 -95.13029414 105.81386006 -92.18286133 105.79467773 C-90.79188988 105.77982834 -90.79188988 105.77982834 -89.37281799 105.76467896 C-86.27591561 105.73286409 -83.17899884 105.70817983 -80.08203125 105.68359375 C-77.91330091 105.66299287 -75.74457429 105.64199564 -73.57585144 105.62062073 C-68.99988949 105.57652195 -64.42391416 105.53565586 -59.84790039 105.49731445 C-54.07431259 105.44891707 -48.30079175 105.39524234 -42.52727222 105.33933926 C-36.94137605 105.28549967 -31.35545516 105.23445945 -25.76953125 105.18359375 C-24.74369242 105.17403593 -23.71785358 105.16447811 -22.66092873 105.15463066 C-5.43939999 104.99711717 11.77653759 105 29 105 C29 71.01 29 37.02 29 2 C19.1 2 9.2 2 -1 2 C-0.67 1.34 -0.34 0.68 0 0 Z " fill="#717171" transform="translate(482,22)"/>
<path d="M0 0 C1.54204102 0.00966797 1.54204102 0.00966797 3.11523438 0.01953125 C4.18708984 0.03628906 5.25894531 0.05304688 6.36328125 0.0703125 C7.44673828 0.07933594 8.53019531 0.08835938 9.64648438 0.09765625 C12.32313835 0.1212391 14.99934922 0.15415124 17.67578125 0.1953125 C17.67578125 0.5253125 17.67578125 0.8553125 17.67578125 1.1953125 C10.74578125 1.1953125 3.81578125 1.1953125 -3.32421875 1.1953125 C-3.32421875 1.8553125 -3.32421875 2.5153125 -3.32421875 3.1953125 C-3.98421875 3.1953125 -4.64421875 3.1953125 -5.32421875 3.1953125 C-4.99421875 49.0653125 -4.66421875 94.9353125 -4.32421875 142.1953125 C2.93578125 142.1953125 10.19578125 142.1953125 17.67578125 142.1953125 C18.67578125 143.1953125 18.67578125 143.1953125 18.78930664 145.14477539 C18.78406982 145.9774292 18.77883301 146.81008301 18.7734375 147.66796875 C18.77021484 148.56708984 18.76699219 149.46621094 18.76367188 150.39257812 C18.75529297 151.33810547 18.74691406 152.28363281 18.73828125 153.2578125 C18.73376953 154.20720703 18.72925781 155.15660156 18.72460938 156.13476562 C18.71278253 158.48830781 18.69484646 160.84181782 18.67578125 163.1953125 C23.95578125 163.1953125 29.23578125 163.1953125 34.67578125 163.1953125 C34.67578125 163.5253125 34.67578125 163.8553125 34.67578125 164.1953125 C28.40578125 164.5253125 22.13578125 164.8553125 15.67578125 165.1953125 C16.00578125 158.5953125 16.33578125 151.9953125 16.67578125 145.1953125 C8.75578125 145.1953125 0.83578125 145.1953125 -7.32421875 145.1953125 C-7.52405832 126.58511483 -7.70802177 107.97484286 -7.87080669 89.36428261 C-7.94678847 80.72354702 -8.02843111 72.08293347 -8.12329102 63.44238281 C-8.20593337 55.91340074 -8.278066 48.38440486 -8.33745128 40.85520208 C-8.36928112 36.86660185 -8.40645914 32.87820984 -8.456213 28.88978958 C-8.5028384 25.13886471 -8.53545356 21.38808372 -8.55714035 17.63693428 C-8.56761958 16.25737494 -8.58329868 14.87784421 -8.60445976 13.49840736 C-8.63250178 11.62064555 -8.64033773 9.74261385 -8.64701843 7.86465454 C-8.65715816 6.81196695 -8.66729788 5.75927937 -8.67774487 4.67469215 C-8.56108125 3.85649687 -8.44441763 3.03830158 -8.32421875 2.1953125 C-4.97302356 -0.03881763 -3.90644325 -0.04316512 0 0 Z " fill="#959595" transform="translate(8.32421875,176.8046875)"/>
<path d="M0 0 C66.99 0 133.98 0 203 0 C203 0.99 203 1.98 203 3 C136.01 2.67 69.02 2.34 0 2 C0 1.34 0 0.68 0 0 Z " fill="#C5C5C5" transform="translate(280,0)"/>
<path d="M0 0 C1.03125 0.00322266 2.0625 0.00644531 3.125 0.00976562 C4.20523438 0.01814453 5.28546875 0.02652344 6.3984375 0.03515625 C8.03039062 0.04192383 8.03039062 0.04192383 9.6953125 0.04882812 C12.38807539 0.06063849 15.08072938 0.07710847 17.7734375 0.09765625 C17.7734375 0.75765625 17.7734375 1.41765625 17.7734375 2.09765625 C11.1734375 2.09765625 4.5734375 2.09765625 -2.2265625 2.09765625 C-2.2265625 10.01765625 -2.2265625 17.93765625 -2.2265625 26.09765625 C-13.7765625 26.09765625 -25.3265625 26.09765625 -37.2265625 26.09765625 C-37.2265625 33.68765625 -37.2265625 41.27765625 -37.2265625 49.09765625 C-38.2165625 49.09765625 -39.2065625 49.09765625 -40.2265625 49.09765625 C-40.2265625 48.43765625 -40.2265625 47.77765625 -40.2265625 47.09765625 C-52.4365625 47.09765625 -64.6465625 47.09765625 -77.2265625 47.09765625 C-77.2265625 46.76765625 -77.2265625 46.43765625 -77.2265625 46.09765625 C-65.3465625 46.09765625 -53.4665625 46.09765625 -41.2265625 46.09765625 C-41.2265625 38.83765625 -41.2265625 31.57765625 -41.2265625 24.09765625 C-36.71182824 23.34520054 -33.01917571 22.97934151 -28.515625 23 C-27.27167969 23.00322266 -26.02773437 23.00644531 -24.74609375 23.00976562 C-23.46089844 23.01814453 -22.17570312 23.02652344 -20.8515625 23.03515625 C-19.54316406 23.03966797 -18.23476562 23.04417969 -16.88671875 23.04882812 C-13.66664698 23.06058021 -10.44659882 23.07851469 -7.2265625 23.09765625 C-7.2265625 15.83765625 -7.2265625 8.57765625 -7.2265625 1.09765625 C-4.66933021 -0.1809599 -2.85919148 -0.01570984 0 0 Z " fill="#616161" transform="translate(233.2265625,178.90234375)"/>
<path d="M0 0 C0.99 0 1.98 0 3 0 C3 7.92 3 15.84 3 24 C10.92 24 18.84 24 27 24 C27 24.66 27 25.32 27 26 C27.66 26 28.32 26 29 26 C29 41.18 29 56.36 29 72 C28.01 72 27.02 72 26 72 C26 57.48 26 42.96 26 28 C18.28141762 28.11843401 18.28141762 28.11843401 10.56347656 28.27026367 C9.59893555 28.27775635 8.63439453 28.28524902 7.640625 28.29296875 C6.65610352 28.3086792 5.67158203 28.32438965 4.65722656 28.34057617 C1.49679622 27.93550448 0.16432522 27.33706776 -2 25 C-2.48583984 22.57983398 -2.48583984 22.57983398 -2.4609375 19.74609375 C-2.45707031 18.72708984 -2.45320312 17.70808594 -2.44921875 16.65820312 C-2.42472656 15.59537109 -2.40023437 14.53253906 -2.375 13.4375 C-2.37371094 12.37080078 -2.37242187 11.30410156 -2.37109375 10.20507812 C-2.28075953 2.28075953 -2.28075953 2.28075953 0 0 Z " fill="#8B8B8B" transform="translate(229,415)"/>
<path d="M0 0 C7.59 0 15.18 0 23 0 C23 1.32 23 2.64 23 4 C14.75 4 6.5 4 -2 4 C-1.99476318 6.60406738 -1.98952637 9.20813477 -1.98413086 11.89111328 C-1.96755185 20.50050511 -1.95651148 29.10989765 -1.94818783 37.71930122 C-1.94297203 42.93852712 -1.93589801 48.15773665 -1.92456055 53.37695312 C-1.91368541 58.4149377 -1.90771334 63.45290654 -1.90512276 68.49090195 C-1.90327686 70.41179527 -1.8996723 72.33268775 -1.89426994 74.25357437 C-1.88699814 76.94657494 -1.88601165 79.6395107 -1.88647461 82.33251953 C-1.88287933 83.12446213 -1.87928406 83.91640472 -1.87557983 84.73234558 C-1.88338204 88.93396016 -2.16996858 92.86035224 -3 97 C-3.33 97 -3.66 97 -4 97 C-4.88695208 91.68951755 -5.13805282 86.59719964 -5.11352539 81.21899414 C-5.11367142 80.36941132 -5.11381744 79.51982849 -5.1139679 78.64450073 C-5.11327554 75.85802589 -5.10551507 73.0716193 -5.09765625 70.28515625 C-5.09578966 68.34459978 -5.09436689 66.40404283 -5.09336853 64.46348572 C-5.08956233 59.37212813 -5.07974832 54.28079937 -5.06866455 49.18945312 C-5.05840956 43.98763417 -5.05386217 38.78581054 -5.04882812 33.58398438 C-5.03812427 23.3893103 -5.02107075 13.19465755 -5 3 C-3.35 2.34 -1.7 1.68 0 1 C0 0.67 0 0.34 0 0 Z " fill="#A0A0A0" transform="translate(258,20)"/>
<path d="M0 0 C8.91 0 17.82 0 27 0 C29.25125393 5.62813481 29.25125393 5.62813481 29.01171875 9.50390625 C28.94114258 10.73850586 28.94114258 10.73850586 28.86914062 11.99804688 C28.80919922 12.84431641 28.74925781 13.69058594 28.6875 14.5625 C28.63916016 15.41263672 28.59082031 16.26277344 28.54101562 17.13867188 C28.30470927 20.95247691 27.93353901 24.26584397 27 28 C18.09 28 9.18 28 0 28 C0 18.76 0 9.52 0 0 Z M2 3 C2 3.33 2 3.66 2 4 C9.59 4 17.18 4 25 4 C25 3.67 25 3.34 25 3 C17.41 3 9.82 3 2 3 Z M3 5 C3 11.27 3 17.54 3 24 C10.26 24 17.52 24 25 24 C25 17.73 25 11.46 25 5 C17.74 5 10.48 5 3 5 Z " fill="#686868" transform="translate(303,25)"/>
<path d="M0 0 C26.172602 -0.02333114 52.34520244 -0.04098024 78.51781273 -0.05181217 C90.66943077 -0.05697467 102.82104235 -0.06401649 114.97265625 -0.07543945 C125.56050388 -0.08538769 136.14834685 -0.09185376 146.73619902 -0.09408849 C152.34552502 -0.09539536 157.95483766 -0.09847971 163.56415939 -0.10573006 C168.8384761 -0.11249247 174.11277387 -0.1146165 179.3870945 -0.11310768 C181.32777446 -0.11338391 183.26845502 -0.11538772 185.20913124 -0.11920547 C187.84902903 -0.12414616 190.48885437 -0.12299687 193.12875366 -0.12025452 C194.29313605 -0.12462378 194.29313605 -0.12462378 195.48104131 -0.12908131 C200.77175758 -0.11412121 200.77175758 -0.11412121 203 1 C203 6.61 203 12.22 203 18 C211.91 18 220.82 18 230 18 C230 18.33 230 18.66 230 19 C220.76 19 211.52 19 202 19 C202 19.66 202 20.32 202 21 C201.01 21 200.02 21 199 21 C199 14.4 199 7.8 199 1 C133.66 1 68.32 1 1 1 C1 5.62 1 10.24 1 15 C0.67 15 0.34 15 0 15 C0 10.05 0 5.1 0 0 Z " fill="#5B5B5B" transform="translate(280,2)"/>
<path d="M0 0 C1.393396 0.00374634 1.393396 0.00374634 2.81494141 0.00756836 C4.58877197 0.02122437 4.58877197 0.02122437 6.3984375 0.03515625 C12.0290625 0.06609375 12.0290625 0.06609375 17.7734375 0.09765625 C17.7734375 14.61765625 17.7734375 29.13765625 17.7734375 44.09765625 C17.1134375 44.09765625 16.4534375 44.09765625 15.7734375 44.09765625 C15.4434375 45.08765625 15.1134375 46.07765625 14.7734375 47.09765625 C14.7734375 32.24765625 14.7734375 17.39765625 14.7734375 2.09765625 C7.8434375 2.09765625 0.9134375 2.09765625 -6.2265625 2.09765625 C-6.2265625 40.04765625 -6.2265625 77.99765625 -6.2265625 117.09765625 C-6.5565625 117.09765625 -6.8865625 117.09765625 -7.2265625 117.09765625 C-7.2265625 78.81765625 -7.2265625 40.53765625 -7.2265625 1.09765625 C-4.66933021 -0.1809599 -2.85919148 -0.01570984 0 0 Z " fill="#777777" transform="translate(10.2265625,178.90234375)"/>
<path d="M0 0 C1.07636719 0.00322266 2.15273437 0.00644531 3.26171875 0.00976562 C4.38964844 0.01814453 5.51757812 0.02652344 6.6796875 0.03515625 C8.38318359 0.04192383 8.38318359 0.04192383 10.12109375 0.04882812 C12.93234388 0.0606401 15.7434898 0.07711118 18.5546875 0.09765625 C18.5546875 1.08765625 18.5546875 2.07765625 18.5546875 3.09765625 C11.2946875 3.09765625 4.0346875 3.09765625 -3.4453125 3.09765625 C-3.7753125 10.02765625 -4.1053125 16.95765625 -4.4453125 24.09765625 C-5.1053125 24.09765625 -5.7653125 24.09765625 -6.4453125 24.09765625 C-6.7753125 24.75765625 -7.1053125 25.41765625 -7.4453125 26.09765625 C-8.19216309 26.09241943 -8.93901367 26.08718262 -9.70849609 26.08178711 C-13.07909307 26.06105224 -16.44967664 26.04800726 -19.8203125 26.03515625 C-20.9959375 26.02677734 -22.1715625 26.01839844 -23.3828125 26.00976562 C-24.50429687 26.00654297 -25.62578125 26.00332031 -26.78125 26 C-27.81813965 25.99476318 -28.8550293 25.98952637 -29.92333984 25.98413086 C-32.4412793 25.9262481 -32.4412793 25.9262481 -34.4453125 27.09765625 C-34.4880335 25.4315372 -34.48595082 23.7638274 -34.4453125 22.09765625 C-33.4453125 21.09765625 -33.4453125 21.09765625 -30.94506836 20.98413086 C-29.86104736 20.98936768 -28.77702637 20.99460449 -27.66015625 21 C-25.90541992 21.00483398 -25.90541992 21.00483398 -24.11523438 21.00976562 C-22.26768555 21.02233398 -22.26768555 21.02233398 -20.3828125 21.03515625 C-18.52946289 21.04192383 -18.52946289 21.04192383 -16.63867188 21.04882812 C-13.57419837 21.06066007 -10.50974957 21.07859617 -7.4453125 21.09765625 C-7.4453125 14.49765625 -7.4453125 7.89765625 -7.4453125 1.09765625 C-4.83580014 -0.20709993 -2.91829965 -0.01535947 0 0 Z " fill="#6D6D6D" transform="translate(184.4453125,439.90234375)"/>
<path d="M0 0 C9.9 0 19.8 0 30 0 C30 35.64 30 71.28 30 108 C20.1 108 10.2 108 0 108 C0.495 107.01 0.495 107.01 1 106 C9.91 105.67 18.82 105.34 28 105 C28.33 71.01 28.66 37.02 29 2 C19.1 2 9.2 2 -1 2 C-0.67 1.34 -0.34 0.68 0 0 Z " fill="#9A9A9A" transform="translate(482,22)"/>
<path d="M0 0 C0.99 0.33 1.98 0.66 3 1 C3 23.77 3 46.54 3 70 C2.34 70 1.68 70 1 70 C1 69.34 1 68.68 1 68 C-7.25 68 -15.5 68 -24 68 C-24 67.67 -24 67.34 -24 67 C-16.08 67 -8.16 67 0 67 C0 44.89 0 22.78 0 0 Z " fill="#737373" transform="translate(253,110)"/>
<path d="M0 0 C0.99 0.495 0.99 0.495 2 1 C3.72011476 1.11409739 5.44446747 1.16676543 7.16821289 1.18945312 C8.78482567 1.21452942 8.78482567 1.21452942 10.43409729 1.2401123 C11.60182175 1.25368774 12.7695462 1.26726318 13.97265625 1.28125 C15.16604111 1.29965942 16.35942596 1.31806885 17.588974 1.33703613 C22.71360034 1.41595871 27.83836205 1.48360359 32.96313477 1.55224609 C36.6955445 1.60382551 40.42783572 1.66112819 44.16015625 1.71875 C45.32990494 1.73232544 46.49965363 1.74590088 47.70484924 1.7598877 C49.31673378 1.78496399 49.31673378 1.78496399 50.96118164 1.81054688 C51.91223282 1.82307495 52.863284 1.83560303 53.84315491 1.84851074 C56 2 56 2 57 3 C57.12281952 4.62579218 57.17782504 6.25677004 57.20532227 7.88696289 C57.2352401 9.44846825 57.2352401 9.44846825 57.26576233 11.04151917 C57.28247482 12.1737944 57.29918732 13.30606964 57.31640625 14.47265625 C57.33718735 15.62543564 57.35796844 16.77821503 57.37937927 17.96592712 C57.44499964 21.66472157 57.50381755 25.36358959 57.5625 29.0625 C57.60567335 31.56315879 57.64928724 34.06381001 57.69335938 36.56445312 C57.80069368 42.70955662 57.90243643 48.85473404 58 55 C56.68 54.67 55.36 54.34 54 54 C54.33 37.5 54.66 21 55 4 C36.85 4 18.7 4 0 4 C0 2.68 0 1.36 0 0 Z " fill="#818181" transform="translate(51,361)"/>
<path d="M0 0 C-0.33 0.33 -0.66 0.66 -1 1 C-1.15582303 2.34015221 -1.25044142 3.68758903 -1.31640625 5.03515625 C-1.35830078 5.84404297 -1.40019531 6.65292969 -1.44335938 7.48632812 C-1.48267578 8.33646484 -1.52199219 9.18660156 -1.5625 10.0625 C-1.60568359 10.91650391 -1.64886719 11.77050781 -1.69335938 12.65039062 C-1.79976702 14.76672037 -1.90041731 16.88333813 -2 19 C-1.2886792 18.98428955 -0.5773584 18.9685791 0.15551758 18.95239258 C3.37443104 18.89008085 6.59321768 18.85102133 9.8125 18.8125 C10.93205078 18.78736328 12.05160156 18.76222656 13.20507812 18.73632812 C14.27822266 18.72666016 15.35136719 18.71699219 16.45703125 18.70703125 C17.44678955 18.6913208 18.43654785 18.67561035 19.45629883 18.65942383 C22.3699213 19.04952877 23.22497802 19.72008288 25 22 C24.67 22.66 24.34 23.32 24 24 C23.915085 25.8863912 23.892807 27.77578515 23.90234375 29.6640625 C23.90556641 30.78554688 23.90878906 31.90703125 23.91210938 33.0625 C23.92048828 34.238125 23.92886719 35.41375 23.9375 36.625 C23.94201172 37.80835938 23.94652344 38.99171875 23.95117188 40.2109375 C23.96298533 43.14067507 23.97945742 46.07031272 24 49 C23.01 49 22.02 49 21 49 C21 40.75 21 32.5 21 24 C13.08 24 5.16 24 -3 24 C-3 15.42 -3 6.84 -3 -2 C-11.25 -2 -19.5 -2 -28 -2 C-28 -2.33 -28 -2.66 -28 -3 C-24.08502431 -3.28410823 -20.16857438 -3.52134177 -16.25 -3.75 C-15.13882813 -3.83121094 -14.02765625 -3.91242188 -12.8828125 -3.99609375 C-11.81289063 -4.05410156 -10.74296875 -4.11210937 -9.640625 -4.171875 C-8.65610352 -4.2347168 -7.67158203 -4.29755859 -6.65722656 -4.36230469 C-3.25563026 -3.89850747 -2.14698285 -2.59241497 0 0 Z " fill="#848484" transform="translate(55,228)"/>
<path d="M0 0 C0.33 0 0.66 0 1 0 C1 4.29 1 8.58 1 13 C-2.33756887 14.66878443 -6.09226197 14.18081765 -9.76416016 14.20532227 C-10.67153427 14.21522186 -11.57890839 14.22512146 -12.51377869 14.23532104 C-15.5221798 14.26698609 -18.53059673 14.29171324 -21.5390625 14.31640625 C-23.62129128 14.33697146 -25.70351584 14.35796781 -27.78573608 14.37937927 C-33.27332145 14.4346447 -38.76094476 14.48403424 -44.24859619 14.53222656 C-49.84545276 14.58240897 -55.44225404 14.63811203 -61.0390625 14.69335938 C-72.02599446 14.80099562 -83.01297437 14.90242843 -94 15 C-94.33 15.99 -94.66 16.98 -95 18 C-95.38218767 16.34385343 -95.71395102 14.67542976 -96 13 C-94.11114805 11.11114805 -91.35948241 11.87989365 -88.84675598 11.87557983 C-87.51966866 11.88097275 -87.51966866 11.88097275 -86.16577148 11.88647461 C-84.77566864 11.88625557 -84.77566864 11.88625557 -83.35748291 11.8860321 C-80.27866313 11.88673162 -77.19990303 11.89452579 -74.12109375 11.90234375 C-71.99259982 11.90420779 -69.86410547 11.90563176 -67.73561096 11.90663147 C-62.1213768 11.91045772 -56.50716832 11.92028892 -50.89294434 11.93133545 C-45.16886747 11.94154727 -39.44478647 11.9461286 -33.72070312 11.95117188 C-22.48045744 11.96191109 -11.24023085 11.9789888 0 12 C0 8.04 0 4.08 0 0 Z " fill="#777777" transform="translate(452,161)"/>
<path d="M0 0 C1.07878418 0.01047363 2.15756836 0.02094727 3.26904297 0.03173828 C5.01894531 0.04140625 5.01894531 0.04140625 6.80419922 0.05126953 C8.02751953 0.06802734 9.25083984 0.08478516 10.51123047 0.10205078 C11.74228516 0.11107422 12.97333984 0.12009766 14.24169922 0.12939453 C17.29006862 0.1530253 20.33805429 0.18597024 23.38623047 0.22705078 C23.38623047 1.21705078 23.38623047 2.20705078 23.38623047 3.22705078 C20.31796666 4.124549 17.59353071 4.34416847 14.40185547 4.32470703 C13.46728516 4.32148438 12.53271484 4.31826172 11.56982422 4.31494141 C10.60173828 4.3065625 9.63365234 4.29818359 8.63623047 4.28955078 C7.65267578 4.28503906 6.66912109 4.28052734 5.65576172 4.27587891 C3.23252256 4.26411561 0.80940773 4.24767762 -1.61376953 4.22705078 C-1.6032959 5.18071533 -1.59282227 6.13437988 -1.58203125 7.11694336 C-1.54582452 10.65596766 -1.52286669 14.19497559 -1.50390625 17.73413086 C-1.49385019 19.26573439 -1.48020353 20.79731873 -1.46289062 22.32885742 C-1.43862455 24.53064714 -1.42728266 26.73218297 -1.41845703 28.93408203 C-1.40813446 29.61855911 -1.39781189 30.30303619 -1.38717651 31.008255 C-1.38631572 34.65766739 -1.52809288 36.0985358 -3.61376953 39.22705078 C-5.63351686 37.20730346 -4.77776392 33.09620562 -4.78173828 30.32470703 C-4.78506668 29.53180771 -4.78839508 28.73890839 -4.79182434 27.92198181 C-4.7968968 26.2415322 -4.79923257 24.56107249 -4.79907227 22.88061523 C-4.80125739 20.30386819 -4.81940562 17.72755002 -4.83837891 15.15087891 C-4.84131299 13.52132309 -4.84329768 11.89176522 -4.84423828 10.26220703 C-4.8514238 9.4882106 -4.85860931 8.71421417 -4.86601257 7.91676331 C-4.83386025 0.4199038 -4.83386025 0.4199038 0 0 Z " fill="#818181" transform="translate(278.61376953125,388.77294921875)"/>
<path d="M0 0 C9.24 0 18.48 0 28 0 C28 0.66 28 1.32 28 2 C28.66 2.33 29.32 2.66 30 3 C30 3.66 30 4.32 30 5 C16.14 4.505 16.14 4.505 2 4 C2 11.92 2 19.84 2 28 C1.01 28 0.02 28 -1 28 C-1.02891949 23.70834738 -1.04677118 19.41671964 -1.0625 15.125 C-1.07087891 13.90167969 -1.07925781 12.67835938 -1.08789062 11.41796875 C-1.09111328 10.25136719 -1.09433594 9.08476562 -1.09765625 7.8828125 C-1.10289307 6.80402832 -1.10812988 5.72524414 -1.11352539 4.61376953 C-1 2 -1 2 0 0 Z M1 2 C1 2.33 1 2.66 1 3 C5.62 3 10.24 3 15 3 C15 2.67 15 2.34 15 2 C10.38 2 5.76 2 1 2 Z " fill="#666666" transform="translate(329,331)"/>
<path d="M0 0 C0.99 0.495 0.99 0.495 2 1 C3.73868744 1.15266612 5.48247501 1.24932596 7.2265625 1.31640625 C8.2578125 1.35830078 9.2890625 1.40019531 10.3515625 1.44335938 C11.43179687 1.48267578 12.51203125 1.52199219 13.625 1.5625 C15.25695312 1.62727539 15.25695312 1.62727539 16.921875 1.69335938 C19.6144517 1.7996453 22.30712253 1.90168057 25 2 C25 2.33 25 2.66 25 3 C17.74 3 10.48 3 3 3 C3 9.27 3 15.54 3 22 C10.59 22 18.18 22 26 22 C26 22.99 26 23.98 26 25 C17.42 25 8.84 25 0 25 C0 16.75 0 8.5 0 0 Z " fill="#ACACAC" transform="translate(303,27)"/>
<path d="M0 0 C15.84 0 31.68 0 48 0 C48.495 1.98 48.495 1.98 49 4 C24.25 3.505 24.25 3.505 -1 3 C-0.67 2.01 -0.34 1.02 0 0 Z " fill="#8C8C8C" transform="translate(357,227)"/>
<path d="M0 0 C0.66 0 1.32 0 2 0 C2 15.18 2 30.36 2 46 C1.01 46 0.02 46 -1 46 C-1.02527062 39.60962769 -1.04283317 33.21926817 -1.05493164 26.82885742 C-1.05997308 24.65307127 -1.06680607 22.47728853 -1.07543945 20.30151367 C-1.08751338 17.18146933 -1.09323005 14.06146962 -1.09765625 10.94140625 C-1.10281754 9.96224747 -1.10797882 8.98308868 -1.11329651 7.97425842 C-1.11337204 7.07340012 -1.11344757 6.17254181 -1.11352539 5.24438477 C-1.115746 4.44718521 -1.11796661 3.64998566 -1.12025452 2.82862854 C-1 1 -1 1 0 0 Z " fill="#757575" transform="translate(256,441)"/>
<path d="M0 0 C0.99 0 1.98 0 3 0 C3 14.52 3 29.04 3 44 C2.34 44 1.68 44 1 44 C0.67 44.99 0.34 45.98 0 47 C0 31.49 0 15.98 0 0 Z " fill="#808080" transform="translate(25,179)"/>
<path d="M0 0 C0.99 0 1.98 0 3 0 C3 8.58 3 17.16 3 26 C-15.81 26 -34.62 26 -54 26 C-54 25.67 -54 25.34 -54 25 C-36.18 25 -18.36 25 0 25 C0 16.75 0 8.5 0 0 Z " fill="#808080" transform="translate(181,486)"/>
<path d="M0 0 C8.25 0 16.5 0 25 0 C25 7.26 25 14.52 25 22 C32.92 22 40.84 22 49 22 C49.33 21.34 49.66 20.68 50 20 C49.505 22.475 49.505 22.475 49 25 C36.13 24.505 36.13 24.505 23 24 C23 16.74 23 9.48 23 2 C15.41 2.33 7.82 2.66 0 3 C0 2.01 0 1.02 0 0 Z " fill="#D8D8D8" transform="translate(356,250)"/>
<path d="M0 0 C0.99 0.33 1.98 0.66 3 1 C2.67 9.91 2.34 18.82 2 28 C-6.25 28 -14.5 28 -23 28 C-23 27.34 -23 26.68 -23 26 C-20.59940183 24.79970092 -19.10639351 24.88540257 -16.4296875 24.90234375 C-15.53378906 24.90556641 -14.63789063 24.90878906 -13.71484375 24.91210938 C-12.77769531 24.92048828 -11.84054688 24.92886719 -10.875 24.9375 C-9.93011719 24.94201172 -8.98523438 24.94652344 -8.01171875 24.95117188 C-5.67441613 24.96297643 -3.33723939 24.97944241 -1 25 C-1.00785522 23.91730835 -1.00785522 23.91730835 -1.01586914 22.81274414 C-1.03657358 19.56267151 -1.04963918 16.31261272 -1.0625 13.0625 C-1.07087891 11.92619141 -1.07925781 10.78988281 -1.08789062 9.61914062 C-1.09272461 7.99975586 -1.09272461 7.99975586 -1.09765625 6.34765625 C-1.10551147 4.84730835 -1.10551147 4.84730835 -1.11352539 3.31665039 C-1 1 -1 1 0 0 Z M-21 26 C-21 26.33 -21 26.66 -21 27 C-14.07 27 -7.14 27 0 27 C0 26.67 0 26.34 0 26 C-6.93 26 -13.86 26 -21 26 Z " fill="#9C9C9C" transform="translate(155,227)"/>
<path d="M0 0 C4.12494151 -0.05784708 8.24977944 -0.09354407 12.375 -0.125 C13.550625 -0.14175781 14.72625 -0.15851563 15.9375 -0.17578125 C17.61972656 -0.18544922 17.61972656 -0.18544922 19.3359375 -0.1953125 C20.37282715 -0.20578613 21.4097168 -0.21625977 22.47802734 -0.22705078 C25 0 25 0 27 2 C27.22705078 4.06298828 27.22705078 4.06298828 27.1953125 6.5703125 C27.18886719 7.46621094 27.18242188 8.36210937 27.17578125 9.28515625 C27.15902344 10.22230469 27.14226563 11.15945313 27.125 12.125 C27.11597656 13.06988281 27.10695313 14.01476562 27.09765625 14.98828125 C27.07404522 17.32577292 27.04111516 19.66276123 27 22 C26.01 22 25.02 22 24 22 C23.34 22.99 22.68 23.98 22 25 C21.06040376 19.70346121 21.01158885 14.91331483 21.4375 9.5625 C21.48970703 8.83095703 21.54191406 8.09941406 21.59570312 7.34570312 C21.72384876 5.56331378 21.8609816 3.7815743 22 2 C20.68 2 19.36 2 18 2 C17.67 2.66 17.34 3.32 17 4 C16.67 3.34 16.34 2.68 16 2 C13.28553021 1.68758545 10.66090639 1.48663408 7.9375 1.375 C6.79958008 1.31699219 6.79958008 1.31699219 5.63867188 1.2578125 C3.75952805 1.16326438 1.87979664 1.08053244 0 1 C0 0.67 0 0.34 0 0 Z " fill="#757575" transform="translate(27,339)"/>
<path d="M0 0 C1.54204102 0.00966797 1.54204102 0.00966797 3.11523438 0.01953125 C4.18708984 0.03628906 5.25894531 0.05304688 6.36328125 0.0703125 C7.44673828 0.07933594 8.53019531 0.08835938 9.64648438 0.09765625 C12.32313835 0.1212391 14.99934922 0.15415124 17.67578125 0.1953125 C17.67578125 0.5253125 17.67578125 0.8553125 17.67578125 1.1953125 C10.74578125 1.1953125 3.81578125 1.1953125 -3.32421875 1.1953125 C-3.32421875 1.8553125 -3.32421875 2.5153125 -3.32421875 3.1953125 C-3.98421875 3.1953125 -4.64421875 3.1953125 -5.32421875 3.1953125 C-5.32421875 18.7053125 -5.32421875 34.2153125 -5.32421875 50.1953125 C-5.98421875 50.1953125 -6.64421875 50.1953125 -7.32421875 50.1953125 C-7.54279297 43.39651278 -7.73782219 36.59733411 -7.91625977 29.79736328 C-7.97980508 27.48275366 -8.04879972 25.16828711 -8.12329102 22.85400391 C-8.22924704 19.53310024 -8.31578505 16.21217999 -8.3984375 12.890625 C-8.43579514 11.85100616 -8.47315277 10.81138733 -8.51164246 9.74026489 C-8.5318898 8.77941986 -8.55213715 7.81857483 -8.57299805 6.82861328 C-8.59742477 5.98033966 -8.6218515 5.13206604 -8.64701843 4.25808716 C-8.54049454 3.57737152 -8.43397064 2.89665588 -8.32421875 2.1953125 C-4.97302356 -0.03881763 -3.90644325 -0.04316512 0 0 Z " fill="#B0B0B0" transform="translate(8.32421875,176.8046875)"/>
<path d="M0 0 C0.66 0.33 1.32 0.66 2 1 C2.02894547 4.45831586 2.04678 7.91660072 2.0625 11.375 C2.07087891 12.35984375 2.07925781 13.3446875 2.08789062 14.359375 C2.09272461 15.77089844 2.09272461 15.77089844 2.09765625 17.2109375 C2.10551147 18.51490479 2.10551147 18.51490479 2.11352539 19.84521484 C2 22 2 22 1 24 C-6.92 24 -14.84 24 -23 24 C-23 16.74 -23 9.48 -23 2 C-22.67 2 -22.34 2 -22 2 C-22 8.93 -22 15.86 -22 23 C-15.07 23 -8.14 23 -1 23 C-1.01160156 21.42347656 -1.02320313 19.84695313 -1.03515625 18.22265625 C-1.04453243 16.16927201 -1.05363282 14.1158865 -1.0625 12.0625 C-1.07087891 11.02158203 -1.07925781 9.98066406 -1.08789062 8.90820312 C-1.09272461 7.42416992 -1.09272461 7.42416992 -1.09765625 5.91015625 C-1.10551147 4.53549194 -1.10551147 4.53549194 -1.11352539 3.13305664 C-1 1 -1 1 0 0 Z " fill="#737373" transform="translate(404,248)"/>
<path d="M0 0 C7.59 0 15.18 0 23 0 C23 0.66 23 1.32 23 2 C16.4 2 9.8 2 3 2 C3 9.92 3 17.84 3 26 C2.67 24.68 2.34 23.36 2 22 C1.34 22 0.68 22 0 22 C0 14.74 0 7.48 0 0 Z " fill="#737373" transform="translate(228,179)"/>
<path d="M0 0 C0.33 0 0.66 0 1 0 C1.07401212 6.08721231 1.12853646 12.17416426 1.16479492 18.26171875 C1.17990586 20.33370524 1.20039541 22.40565963 1.22631836 24.47753906 C1.26260051 27.45125233 1.27970298 30.42454373 1.29296875 33.3984375 C1.30845261 34.32868744 1.32393646 35.25893738 1.33988953 36.21737671 C1.34011612 37.07811798 1.34034271 37.93885925 1.34057617 38.82568359 C1.34723801 39.58513275 1.35389984 40.34458191 1.36076355 41.12704468 C1.24171158 41.74511993 1.12265961 42.36319519 1 43 C0.01 43.66 -0.98 44.32 -2 45 C-2.04934154 38.91277254 -2.08569167 32.8256608 -2.10986328 26.73828125 C-2.11993712 24.66632053 -2.13359666 22.59437407 -2.15087891 20.52246094 C-2.17506664 17.54879236 -2.18646908 14.5753113 -2.1953125 11.6015625 C-2.20563507 10.67131256 -2.21595764 9.74106262 -2.22659302 8.78262329 C-2.22674408 7.92188202 -2.22689514 7.06114075 -2.22705078 6.17431641 C-2.231492 5.41486725 -2.23593323 4.65541809 -2.24050903 3.87295532 C-2 2 -2 2 0 0 Z " fill="#696969" transform="translate(276,440)"/>
<path d="M0 0 C8.25 0.33 16.5 0.66 25 1 C25 1.33 25 1.66 25 2 C17.74 2 10.48 2 3 2 C3 8.93 3 15.86 3 23 C2.01 22.67 1.02 22.34 0 22 C0 14.74 0 7.48 0 0 Z " fill="#787878" transform="translate(131,254)"/>
<path d="M0 0 C-0.33 0.33 -0.66 0.66 -1 1 C-1.15582303 2.34015221 -1.25044142 3.68758903 -1.31640625 5.03515625 C-1.35451416 5.76355713 -1.39262207 6.49195801 -1.43188477 7.24243164 C-1.49653931 8.63836548 -1.49653931 8.63836548 -1.5625 10.0625 C-1.706875 13.011875 -1.85125 15.96125 -2 19 C5.92 19 13.84 19 22 19 C22 19.33 22 19.66 22 20 C21.31373535 20.02505615 20.6274707 20.0501123 19.92041016 20.07592773 C16.82174183 20.19171427 13.72339077 20.31451885 10.625 20.4375 C9.54476562 20.47681641 8.46453125 20.51613281 7.3515625 20.55664062 C6.3203125 20.59853516 5.2890625 20.64042969 4.2265625 20.68359375 C2.79691162 20.73858032 2.79691162 20.73858032 1.33837891 20.79467773 C-1.02132349 20.85763465 -1.02132349 20.85763465 -3 22 C-3 14.08 -3 6.16 -3 -2 C-11.25 -2 -19.5 -2 -28 -2 C-28 -2.33 -28 -2.66 -28 -3 C-24.08502431 -3.28410823 -20.16857438 -3.52134177 -16.25 -3.75 C-15.13882813 -3.83121094 -14.02765625 -3.91242188 -12.8828125 -3.99609375 C-11.81289063 -4.05410156 -10.74296875 -4.11210937 -9.640625 -4.171875 C-8.65610352 -4.2347168 -7.67158203 -4.29755859 -6.65722656 -4.36230469 C-3.25563026 -3.89850747 -2.14698285 -2.59241497 0 0 Z " fill="#9B9B9B" transform="translate(55,228)"/>
<path d="M0 0 C7.92 0 15.84 0 24 0 C24 0.99 24 1.98 24 3 C16.08 3 8.16 3 0 3 C0 2.01 0 1.02 0 0 Z " fill="#B2B2B2" transform="translate(179,440)"/>
<path d="M0 0 C1.53720703 0.01450195 1.53720703 0.01450195 3.10546875 0.02929688 C4.70068359 0.06700195 4.70068359 0.06700195 6.328125 0.10546875 C7.94654297 0.12577148 7.94654297 0.12577148 9.59765625 0.14648438 C12.2583192 0.18180291 14.91796796 0.23112676 17.578125 0.29296875 C17.578125 0.95296875 17.578125 1.61296875 17.578125 2.29296875 C16.918125 2.29296875 16.258125 2.29296875 15.578125 2.29296875 C15.248125 2.95296875 14.918125 3.61296875 14.578125 4.29296875 C6.658125 3.96296875 -1.261875 3.63296875 -9.421875 3.29296875 C-5.29632592 0.19880694 -4.76516524 -0.07941942 0 0 Z " fill="#525252" transform="translate(162.421875,461.70703125)"/>
<path d="M0 0 C0.66 0.33 1.32 0.66 2 1 C2 7.6 2 14.2 2 21 C1.01 21 0.02 21 -1 21 C-1.0269501 18.06243881 -1.04681474 15.12512445 -1.0625 12.1875 C-1.07087891 11.35412109 -1.07925781 10.52074219 -1.08789062 9.66210938 C-1.09111328 8.85966797 -1.09433594 8.05722656 -1.09765625 7.23046875 C-1.10289307 6.49207764 -1.10812988 5.75368652 -1.11352539 4.99291992 C-1 3 -1 3 0 0 Z " fill="#6C6C6C" transform="translate(52,340)"/>
<path d="M0 0 C0.33 0 0.66 0 1 0 C1.01030746 0.60943451 1.02061493 1.21886902 1.03123474 1.84677124 C1.13916953 8.17302465 1.25377788 14.49913185 1.37231445 20.82519531 C1.41570516 23.18812001 1.45737713 25.55107691 1.49731445 27.9140625 C1.55491693 31.30478636 1.6186401 34.6953475 1.68359375 38.0859375 C1.70866249 39.67817642 1.70866249 39.67817642 1.73423767 41.30258179 C1.75418289 42.28344757 1.77412811 43.26431335 1.79467773 44.27490234 C1.81022202 45.14094086 1.8257663 46.00697937 1.84178162 46.89926147 C1.87096592 49.05757893 1.87096592 49.05757893 3 51 C1.68 50.67 0.36 50.34 -1 50 C-0.67 33.5 -0.34 17 0 0 Z " fill="#E7E7E7" transform="translate(106,365)"/>
<path d="M0 0 C0.66 1.32 1.32 2.64 2 4 C1.67 4.33 1.34 4.66 1 5 C0.87802192 6.38050858 0.82231101 7.76697647 0.79467773 9.15258789 C0.77473251 10.03342545 0.75478729 10.914263 0.73423767 11.8217926 C0.71752518 12.77907761 0.70081268 13.73636261 0.68359375 14.72265625 C0.66281265 15.69786728 0.64203156 16.67307831 0.62062073 17.67784119 C0.55501588 20.8059863 0.49618972 23.93421822 0.4375 27.0625 C0.39432517 29.1777435 0.35071123 31.29297809 0.30664062 33.40820312 C0.19932345 38.60537587 0.0975778 43.80263577 0 49 C0.66 49.33 1.32 49.66 2 50 C1.01 50 0.02 50 -1 50 C-1.02532254 43.36141777 -1.04285528 36.72284797 -1.05493164 30.08422852 C-1.05996526 27.8251092 -1.06679262 25.56599314 -1.07543945 23.30688477 C-1.08754745 20.06265457 -1.09323799 16.81846739 -1.09765625 13.57421875 C-1.10281754 12.56163498 -1.10797882 11.54905121 -1.11329651 10.50578308 C-1.11337204 9.56503433 -1.11344757 8.62428558 -1.11352539 7.6550293 C-1.115746 6.82674118 -1.11796661 5.99845306 -1.12025452 5.14506531 C-1 3 -1 3 0 0 Z " fill="#5D5D5D" transform="translate(274,437)"/>
<path d="M0 0 C0.33 0 0.66 0 1 0 C1 15.51 1 31.02 1 47 C0.67 47 0.34 47 0 47 C0 31.49 0 15.98 0 0 Z " fill="#FFFFFF" transform="translate(104,366)"/>
<path d="M0 0 C0.99 0.33 1.98 0.66 3 1 C3 6.61 3 12.22 3 18 C1.35 18.33 -0.3 18.66 -2 19 C-2 18.34 -2 17.68 -2 17 C-1.34 17 -0.68 17 0 17 C0 11.39 0 5.78 0 0 Z " fill="#C5C5C5" transform="translate(453,157)"/>
<path d="M0 0 C0.33 0 0.66 0 1 0 C1.33 5.94 1.66 11.88 2 18 C7.28 18.33 12.56 18.66 18 19 C18 19.33 18 19.66 18 20 C8.595 20.495 8.595 20.495 -1 21 C-0.67 14.07 -0.34 7.14 0 0 Z " fill="#DCDCDC" transform="translate(25,321)"/>
<path d="M0 0 C1.35700647 2.71401294 1.1123861 4.84846316 1.09765625 7.8828125 C1.09443359 9.04941406 1.09121094 10.21601563 1.08789062 11.41796875 C1.07951172 12.64128906 1.07113281 13.86460937 1.0625 15.125 C1.05798828 16.35605469 1.05347656 17.58710938 1.04882812 18.85546875 C1.0370133 21.90369392 1.02054028 24.95182314 1 28 C1.66 28.33 2.32 28.66 3 29 C2.67 30.32 2.34 31.64 2 33 C1.01 32.67 0.02 32.34 -1 32 C-1.02465504 27.60343827 -1.04283842 23.2069128 -1.05493164 18.81030273 C-1.05997121 17.31355082 -1.06680287 15.81680384 -1.07543945 14.32006836 C-1.08752159 12.17300193 -1.09323191 10.02600038 -1.09765625 7.87890625 C-1.10289307 6.5854126 -1.10812988 5.29191895 -1.11352539 3.95922852 C-1 1 -1 1 0 0 Z " fill="#606060" transform="translate(328,331)"/>
<path d="M0 0 C8.58 0 17.16 0 26 0 C26 0.99 26 1.98 26 3 C24.02 3.33 22.04 3.66 20 4 C20 3.01 20 2.02 20 1 C13.4 1 6.8 1 0 1 C0 0.67 0 0.34 0 0 Z " fill="#777777" transform="translate(276,389)"/>
<path d="M0 0 C2 2 2 2 2.1953125 4.8203125 C2.16050781 6.45613281 2.16050781 6.45613281 2.125 8.125 C2.10695313 9.22070312 2.08890625 10.31640625 2.0703125 11.4453125 C2.04710937 12.28835938 2.02390625 13.13140625 2 14 C1.01 14 0.02 14 -1 14 C-1.02685938 11.85423363 -1.04633088 9.70837355 -1.0625 7.5625 C-1.07410156 6.36753906 -1.08570313 5.17257812 -1.09765625 3.94140625 C-1 1 -1 1 0 0 Z " fill="#7A7A7A" transform="translate(256,496)"/>
<path d="M0 0 C0.33 1.32 0.66 2.64 1 4 C-0.65 4.33 -2.3 4.66 -4 5 C-4.33 4.34 -4.66 3.68 -5 3 C-11.27 3 -17.54 3 -24 3 C-24 2.67 -24 2.34 -24 2 C-16.08 2 -8.16 2 0 2 C0 1.34 0 0.68 0 0 Z " fill="#B3B3B3" transform="translate(405,270)"/>
<path d="M0 0 C6.6 0 13.2 0 20 0 C20 4.95 20 9.9 20 15 C19.67 15 19.34 15 19 15 C19 10.38 19 5.76 19 1 C12.73 1 6.46 1 0 1 C0 0.67 0 0.34 0 0 Z " fill="#707070" transform="translate(4,323)"/>
<path d="M0 0 C6.6 0.33 13.2 0.66 20 1 C20 1.33 20 1.66 20 2 C11.585 2.495 11.585 2.495 3 3 C2.67 3.66 2.34 4.32 2 5 C1.34 5 0.68 5 0 5 C0 3.35 0 1.7 0 0 Z " fill="#A2A2A2" transform="translate(150,462)"/>
<path d="M0 0 C0.33 0.66 0.66 1.32 1 2 C1.66 2.33 2.32 2.66 3 3 C2 4 2 4 -0.31665039 4.11352539 C-1.31688232 4.10828857 -2.31711426 4.10305176 -3.34765625 4.09765625 C-4.42724609 4.09443359 -5.50683594 4.09121094 -6.61914062 4.08789062 C-7.75544922 4.07951172 -8.89175781 4.07113281 -10.0625 4.0625 C-11.20267578 4.05798828 -12.34285156 4.05347656 -13.51757812 4.04882812 C-16.34510351 4.03699747 -19.1725264 4.0205141 -22 4 C-22 3.67 -22 3.34 -22 3 C-15.4 3 -8.8 3 -2 3 C-2 2.34 -2 1.68 -2 1 C-1.34 0.67 -0.68 0.34 0 0 Z " fill="#606060" transform="translate(253,178)"/>
<path d="M0 0 C0.33 0 0.66 0 1 0 C1 8.25 1 16.5 1 25 C0.67 25 0.34 25 0 25 C0 16.75 0 8.5 0 0 Z " fill="#000000" transform="translate(303,366)"/>
<path d="M0 0 C0.99 0.66 1.98 1.32 3 2 C2.01 2.495 2.01 2.495 1 3 C0.68758545 5.71446979 0.48663408 8.33909361 0.375 11.0625 C0.33632812 11.82111328 0.29765625 12.57972656 0.2578125 13.36132812 C0.16326438 15.24047195 0.08053244 17.12020336 0 19 C-0.33 19 -0.66 19 -1 19 C-1.33 13.06 -1.66 7.12 -2 1 C-1.34 0.67 -0.68 0.34 0 0 Z " fill="#BBBBBB" transform="translate(194,202)"/>
<path d="M0 0 C0.33 0 0.66 0 1 0 C1 7.92 1 15.84 1 24 C0.67 24 0.34 24 0 24 C0 16.08 0 8.16 0 0 Z " fill="#E9E9E9" transform="translate(124,421)"/>
<path d="M0 0 C0.99 0 1.98 0 3 0 C3 3.63 3 7.26 3 11 C-0.317124 6.577168 -0.30466674 5.28089024 0 0 Z " fill="#646464" transform="translate(403,231)"/>
<path d="M0 0 C0.99 0 1.98 0 3 0 C3 2.97 3 5.94 3 9 C2.34 9 1.68 9 1 9 C-0.4783226 6.04335481 -0.06032783 3.25770263 0 0 Z " fill="#B2B2B2" transform="translate(253,171)"/>
<path d="M0 0 C0.33 0 0.66 0 1 0 C1 7.26 1 14.52 1 22 C0.67 22 0.34 22 0 22 C0 14.74 0 7.48 0 0 Z " fill="#000000" transform="translate(204,417)"/>
<path d="M0 0 C2 2 2 2 2.1953125 4.8203125 C2.16050781 6.45613281 2.16050781 6.45613281 2.125 8.125 C2.10695313 9.22070312 2.08890625 10.31640625 2.0703125 11.4453125 C2.04710937 12.28835938 2.02390625 13.13140625 2 14 C1.67 14 1.34 14 1 14 C1 10.7 1 7.4 1 4 C0.34 4 -0.32 4 -1 4 C-0.67 2.68 -0.34 1.36 0 0 Z " fill="#676767" transform="translate(256,496)"/>
<path d="M0 0 C0.33 0 0.66 0 1 0 C1 6.27 1 12.54 1 19 C0.67 19 0.34 19 0 19 C0 12.73 0 6.46 0 0 Z " fill="#FFFFFF" transform="translate(378,253)"/>
<path d="M0 0 C0.33 0 0.66 0 1 0 C1 4.29 1 8.58 1 13 C0.67 13 0.34 13 0 13 C0 8.71 0 4.42 0 0 Z " fill="#D7D7D7" transform="translate(124,488)"/>
<path d="M0 0 C2 1 2 1 2 1 Z " fill="#000000" transform="translate(208,417)"/>
<path d="M0 0 C2 1 2 1 2 1 Z " fill="#000000" transform="translate(298,393)"/>
<path d="M0 0 C2 1 2 1 2 1 Z " fill="#000000" transform="translate(450,177)"/>
<path d="" fill="#000000" transform="translate(0,0)"/>
<path d="" fill="#000000" transform="translate(0,0)"/>
<path d="" fill="#000000" transform="translate(0,0)"/>
</svg>
